P1
45 37
000000000000000000000000000000000000000000000
000000000000000000000010000000000000000000000
000000000000000000000111000000000000000000000
000000000000000000000111000000000000000000000
000000000000000000000111000000000000000000000
000000000000000000000111000000000000000000000
000000000001000000000111000000000100000000000
000000000011100000000010000000001110000000000
000000000001110000000000000000011100000000000
000000000000111000000000000000111000000000000
000000000000010000001111100000010000000000000
000000000000000001111111111000000000000000000
000000000000000011111000111110000000000000000
000000000000000111100000001110000000000000000
000000000000000111000000000111000000000000000
000000000000001110000000000011100000000000000
000000000000001100000000000001100000000000000
000001111100011100000000000001110001111100000
000011111110011100000000000001110011111110000
000001111100011100000000000001110001111100000
000000000000001100000000000001100000000000000
000000000000001110000000000011100000000000000
000000000000001110000000000111000000000000000
000000000000000111000000001111000000000000000
000000000000000011110000011110000000000000000
000000000000000001111111111100000000000000000
000000000000010000111111111000010000000000000
000000000000111000001111100000111000000000000
000000000001110000000000000000011100000000000
000000000011110000000000000000011110000000000
000000000001100000000010000000001100000000000
000000000000000000000111000000000000000000000
000000000000000000000111000000000000000000000
000000000000000000000111000000000000000000000
000000000000000000000111000000000000000000000
000000000000000000000111000000000000000000000
000000000000000000000010000000000000000000000
