P1
45 37
000000000000000000000000000000000000000000000
000000000000000000000000000000000000000000000
000000000000000011111111100000000000000000000
000000000000000011111111111000000000000000000
000000000000000001111111111110000000000000000
000000000001100000001110001111000000000000000
000000000011100000000011100111100000000000000
000000000111000001111111110001110000000000000
000000001110000011111111110000111000000000000
000000011100001111100000000000111000000000000
000000011000011110000000000000011100000000000
000000111000111100000000000000001100000000000
000000110000111000000000000000001110000000000
000000110001110000000000000000001110000000000
000001100011100000000000000000000110000000000
000001100011100000000000000000000110000000000
000001100011000000000000000000000110000000000
000001100011000000000000000000000110001100000
000001100011000000000000000000000110001100000
000000000011000000000000000000001110001100000
000000000011000000000000000000001110001100000
000000000011000000000000000000001110001100000
000000000011100000000000000000011100011000000
000000000011100000000000000000111100011000000
000000000001110000000000000001111000111000000
000000000001110000000000000011110000110000000
000000000000111000000000011111100001110000000
000000000000111100011111111110000001100000000
000000000000011110011111111000000011000000000
000000000000001111001110000000000111000000000
000000000000000111100011100000001110000000000
000000000000000011111111111100000000000000000
000000000000000000111111111110000000000000000
000000000000000000001111111110000000000000000
000000000000000000000000000000000000000000000
000000000000000000000000000000000000000000000
000000000000000000000000000000000000000000000
