P1
45 37
000000000000000000000000000001110000000000000
000000000000000000000000000111111100000000000
000000000000000000000000001111111111000000000
000000000000000000000000011111111111000000000
000000000000000000000000111111111111100000000
000000000000000000000000110001111111100000000
000000000000000000000000110001111111100000000
000000000000000000000000100001111111100000000
000000000000000000000000000001111111100000000
000000000000000000000000000001111111100000000
000000000000000000000000000111111111100000000
000000000000000000000000111111111111000000000
000000111000000111111111111111111111000000000
000001111111111111111111111111111110000000000
000000001111111111111111111111111100000000000
000000000000011111111111111111110000000001100
000000000000000000000111111110000000010001100
000000000000000000000000000000000000111011100
000000000000000000000000001110011101110000000
000000000000000000000000001110011100000000000
000000000001100011000000001100000000001100000
000001110011100111101110000000000110011100000
000001110001100011001111000000001111011000000
001100001100000000000000011000000010000000000
011110011110111000000000011100000000000000000
001000000000111101110000001100000000000000000
000000000000000001111000000000000000000000000
000000000000000000010000000011000000000000000
000000000000000000000110000011000000000000000
000000000000000000000110000011000000000000000
000000000000000000000110000010000000000000000
000000000000000001100000000000000000000000000
000000000000000001110000000110000000000000000
000000000000000001110000001110000000000000000
000000000000000000000111001100000000000000000
000000000000000000000111000000000000000000000
000000000000000000000011000000000000000000000
