P1
45 37
000000000000000000000000000000000000000000000
000000000000000000000010000000000000000000000
000000000000000000000111000000000000000000000
000000000000000001000111000100000000000000000
000000000000000011100111001110000000000000000
000000000000000001111111111100000000000000000
000000000000100000111111111000010000000000000
000000000000110000001111100000110000000000000
000000000000110000000111000000110000000000000
000000011100110000000111000000110011100000000
000000001111110000000111000000111111000000000
000000000111111000000111000000111111000000000
000000000001111100000111000001111100000000000
000000000011111111000111000111111110000000000
000000011111101111100111011111000111100000000
000000001100000011111111111110000011000000000
000000000000000000111111111000000000000000000
000000000000000000011111100000000000000000000
000000000000000000000111000000000000000000000
000000000000000000000111000000000000000000000
000000000000000000000111000000000000000000000
000000000000000000000111000000000000000000000
000000000000000000000111000000000000000000000
000000000000000000000111000000000000000000000
000000000111111111111111111111111111000000000
000000000111111111111111111111111111000000000
000000000000000000000000000000000000000000000
000000000000000000000000000000000000000000000
000000000000000000000000000000000000000000000
000000000000111111111111111111111000000000000
000000000000111111111111111111111000000000000
000000000000000000000000000000000000000000000
000000000000000000000000000000000000000000000
000000000000000111111111111111000000000000000
000000000000001111111111111111100000000000000
000000000000000111111111111111000000000000000
000000000000000000000000000000000000000000000
