P1
45 37
000000000000000000001111111000000000000000000
000000000000000000111111111100000000000000000
000000000000000000111100011110000000000000000
000000000000000001110000001111000000000000000
000000000000000001100000000111111100000000000
000000000000000011100000000011111111000000000
000000000000001111100000000000001111000000000
000000000000111111100000000000000011100000000
000000000001111101000000000000000001100000000
000000000001110000000000000000000001110000000
000000000011100000000000000000000001110000000
000001111111000000000011111000000001111100000
000111111111000000000111111100000001111110000
001111100011000000001111111111100011111111000
001110000000000000001111111111111111100011100
011100000000000000111111111111111111000001110
011100000000000011111111111111111100000001110
011000000000011111111111111111111100000000110
011000000001111111111111111111111111000001110
011100000001111111111111111111111111100001110
011110000011111111111111111111111111110011100
001111000011111111111111111111111111110111100
000111111111111111111111111111111111111111000
000011111111111111111111111111111111111110000
000000000111111111111111111111111111110000000
000000000011111111111111111111111111110000000
000000000001111111111111111111111111000000000
000000000000000000000000000000000000000000000
000000000001100000011000000110000001100000000
000000000011110000111000001111000011110000000
000000001111000011110000111100001111000000000
000000000110000001100000011000000110000000000
000000000000000000000000000000000000000000000
000000000000011000000110000001100000000000000
000000000000111000001111000011110000000000000
000000000001111000011110000111100000000000000
000000000001100000011000000110000000000000000
