P1
45 37
000000000000000000000000000000000000000000000
000000000000010000000000000000000000000000000
000000000000011110000000000000000000000000000
000000000000001111000000000000000000000000000
000000000000001111100000000000000000000000000
000000000000001111110000000000000000000000000
000000000000001111111000000000000000000000000
000000000000001111111111111000000000000000000
000000000000001111111111111100000000000000000
000000000000011111111100001110000000000000000
000000000000011111111000000111111000000000000
000000000000111111110000000011111100000000000
000110000011111111110000000000001110000000000
000111111111111111110000000000000111000000000
000111111111111100000000000000000011000000000
000011111111111000000000000000000011000000000
000001111111111000000000000000000011110000000
000000111111110000000000000000000011111100000
000000111000110000000000000000000111011110000
000001110000000000000000000000001110000110000
000001100000000000000000000001111100000111000
000001100000000000000000000000110000000011000
000001100000000000000000000000000000000011000
000001100000000000000000000000000000000111000
000001110000000000000000000000000000000110000
000000111000000000000000000000000000001110000
000000111111111111111111111111111111111100000
000000001111111111111111111111111111110000000
000000000000000000000000000000000000000000000
000000000000000000000000000000000000000000000
000000000000000000110000011000000000000000000
000000000000000001110000111000000000000000000
000000000000000011100001110000000000000000000
000000000000000001000011100000000000000000000
000000000000000000000011000000000000000000000
000000000000000000000000000000000000000000000
000000000000000000000000000000000000000000000
