P1
45 37
000000000000000000000000000000000000000000000
000000000001100000000000000000000000000000000
000000000001100000000110000000000000000000000
000000000001100000001100000000000000000000000
000000000001100000011000000000000000000000000
001100000000000000110000000000000000000000000
000110000000000000000000000000000000000000000
000011000000011110000000110000000000000000000
000001100001111111100011111100000000000000000
000000100011111111110111111111000000000000000
000000000111111111111110000011000000000000000
000000000111111111111100000011111100000000000
000000001111111111111000000001111111000000000
000000001111111111111000000000000111000000000
000000001111111111111000000000000011100000000
000011001111111111000000000000000001100000000
000110000111111100000000000000000001100000000
001100000111111100000000000000000001111000000
000000001111111100000000000000000001111110000
000000011100011000000000000000000011100111000
000000111000000000000000000000001111000011000
000000110000000000000000000000111110000011100
000000110000000000000000000000010000000001100
000000110000000000000000000000000000000001100
000000110000000000000000000000000000000011100
000000111000000000000000000000000000000011000
000000011100000000000000000000000000001111000
000000001111111111111111111111111111111110000
000000000011111111111111111111111111111000000
000000000000000000000000000000000000000000000
000000000000000000000000000000000000000000000
000000000000000000011000001100000000000000000
000000000000000000111000011100000000000000000
000000000000000001110000111000000000000000000
000000000000000000100001110000000000000000000
000000000000000000000001100000000000000000000
000000000000000000000000000000000000000000000
