P1
35 35
00000000000000000000000000000000000
00000000000000000000000000000000000
00000000000000000000000000000000000
00000000000001111111110000000000000
00000000000001000000010000000000000
00000000000001000000010000000000000
00000000000001000000010000000000000
00000000000001000000010000000000000
00000000000001000000010000000000000
00000000000001000000010000000000000
00000000000001000000010000000000000
00000000000001000000010000000000000
00000000000001000000010000000000000
00000000000001000000010000000000000
00000000000001000000010000000000000
00000000000001000000010000000000000
00000000000001000000010000000000000
00000000000001000000010000000000000
00000000000001000000010000000000000
00000000000001001110010000000000000
00000000000001001110010000000000000
00000000000001101110110000000000000
00000000000001101110110000000000000
00000000000010001110001000000000000
00000000000010011111001000000000000
00000000000100111111100100000000000
00000000000100111111100100000000000
00000000000100111111100100000000000
00000000000010011111001000000000000
00000000000010000000001000000000000
00000000000001100000110000000000000
00000000000000011111000000000000000
00000000000000000000000000000000000
00000000000000000000000000000000000
00000000000000000000000000000000000
