P1
45 37
000000000000000000000000000000000000000000000
000000000000000000000000000000000000000000000
000000000000000000000000000000000000000000000
000000000000000000000000000000000000000000000
000000000000011100000000000000000000000000000
000000000000001111000000000000000000000000000
000000000000001111100000000000000000000000000
000000000000000111110000000000000000000000000
000000000000000111111000000000000000000000000
000000000000000111111001110000000000000000000
000000000000001111111111111100000000000000000
000000000000001111111110011110000000000000000
000000000000011111111100000111000000000000000
000000000000111111111000000011111100000000000
000100000001111111110000000011111110000000000
000111100111111111110000000000000111000000000
000011111111111111110000000000000011000000000
000011111111111110000000000000000011000000000
000011111111111100000000000000000001100000000
000001111111111000000000000000000011110000000
000000111111111000000000000000000011111100000
000000111000110000000000000000000111001110000
000001110000000000000000000000001110000111000
000001100000000000000000000000111100000011000
000001100000000000000000000000110000000011000
000001100000000000000000000000000000000011000
000001100000000000000000000000000000000011000
000001110000000000000000000000000000000110000
000000111100000000000000000000000000011110000
000000011111111111111111111111111111111100000
000000000011111111111111111111111111100000000
000000000000000000000000000000000000000000000
000000000000000000000000000000000000000000000
000000000000000000000000000000000000000000000
000000000000000000000000000000000000000000000
000000000000000000000000000000000000000000000
000000000000000000000000000000000000000000000
