P1
45 37
000000000000000000000000000000000000000000000
000000000000000000000011100000000000000000000
000000000000000000001111111000000000000000000
000000000000000000011111111100000000000000000
000000000000000000111000001110000000000000000
000000000000000001110000000111111000000000000
000000000000000001110000000111111110000000000
000000000000000111110000000011011110000000000
000000000000011111110000000000000111000000000
000000000000111111100000000000000011000000000
000000000000111000000000000000000011100000000
000000001101110000000001111000000011100000000
000000111111110000000011111100000011111000000
000001111111110000000111111110000111111110000
000011110001100000001111111111111111001110000
000111100000000000011111111111111110000111000
000111000000000001111111111111111100000011000
000111000000000001111111111111111000000011100
000111000000011111111111111111111100000011100
000111000000111111111111111111111111000011000
000111000000111111111111111111111111000111000
000011100001111111111111111111111111101111000
000001111111111111111111111111111111111110000
000000111111111111111111111111111111111100000
000000001111111111111111111111111111110000000
000000000001111111111111111111111111100000000
000000000000111111111111111111111111000000000
000000000000011111111111111111111110000000000
000000000000000000000000000000000000000000000
000000000000000000000000000000000000000000000
000000000001100000011000000110000001100000000
000000000011100000111000001110000011100000000
000000000111000001110000011100000111000000000
000000011100000111000001110000011100000000000
000000111000001110000011100000111000000000000
000000110000001100000011000000110000000000000
000000000000000000000000000000000000000000000
