P1
35 35
00000000000000000000000000000000000
00000000000000000000000000000000000
00000000000000000000000000000000000
00000000000000000000000000000000000
00000000000000000000000000000000000
00000000000000000100000000000000000
00000000000000001010000000000000000
00000000000000001010000000000000000
00000000000000010001000000000000000
00000000000000010001000000000000000
00000000000000100000100000000000000
00000000000000100000100000000000000
00000000000001000000010000000000000
00000000000010000000001000000000000
00000000000010000000001000000000000
00000000000100000100000100000000000
00000000000100001110000100000000000
00000000001000011111000010000000000
00000000001000011111000010000000000
00000000001000111111100010000000000
00000000000100111111100100000000000
00000000000100011111000100000000000
00000000000010001110001000000000000
00000000000001000000010000000000000
00000000000000100000100000000000000
00000000000000010001000000000000000
00000000000000001110000000000000000
00000000000000000000000000000000000
00000000000000000000000000000000000
00000000000000000000000000000000000
00000000000000000000000000000000000
00000000000000000000000000000000000
00000000000000000000000000000000000
00000000000000000000000000000000000
00000000000000000000000000000000000
