P1
45 37
000000000000000000000000000000000000000000000
000000000011000000000000000000000000000000000
000000000001100000000110000000000000000000000
000000000001100000001100000000000000000000000
000000000000110000001100000000000000000000000
000000000000000000011000000000000000000000000
001100000000000000000000000000000000000000000
000110000000000000000000000000000000000000000
000011000000111111000011111100000000000000000
000001100011111111100111111111000000000000000
000000000011111111111110000111000000000000000
000000000111111111111100000011111100000000000
000000000111111111111100000001111110000000000
000000001111111111111000000000000111000000000
000000001111111111111000000000000011100000000
000011000111111111000000000000000001100000000
000110000111111110000000000000000001100000000
001100000111111100000000000000000001111000000
000000001111111100000000000000000001111110000
000000011110011100000000000000000011101111000
000000011000000000000000000000000111000011000
000000110000000000000000000000011110000001100
000000110000000000000000000000011100000001100
000000110000000000000000000000000000000001100
000000110000000000000000000000000000000001100
000000011000000000000000000000000000000011000
000000011110000000000000000000000000001111000
000000001111111111111111111111111111111110000
000000000011111111111111111111111111111000000
000000000000000000000000000000000000000000000
000000000000000000000000000000000000000000000
000000000000000000000000000000000000000000000
000000000000110000011100001110000011000000000
000000000001110000111000011100000111000000000
000000000011100001110000111000001110000000000
000000000110000011100001110000011000000000000
000000000000000000000000000000000000000000000
