P1
45 37
000000000000000000000000000000000000000000000
000000000000000000000000000000000000000000000
000000000000000000000000000000000000000000000
000000000000000000010000010000000000000000000
000000000000001100110000011001110000000000000
000000000000011101110000011101100000000000000
000000000000001101100000011111000100000000000
000000000001001111100000001111001110000000000
000000000001111111000000000111111100000000000
000000000011111111100000001111111110000000000
000000000000000011111111111110000000000000000
000000000000000001111111111100000000000000000
000000000000000011111111111110000000000000000
000000000000000111110000011111000000000000000
000000001000000111111000111111000000100000000
000000011100001110011101110011100001110000000
000000001110001110001111100011100011100000000
000000000111011100000111000001110111000000000
000000111111111111111111111111111111111000000
000000111111111111111111111111111111111000000
000000000111011100000111000001110111000000000
000000001110001110001111100011100011100000000
000000011100001110011101110011100001110000000
000000001000000111111000111111000000100000000
000000000000000111110000011110000000000000000
000000000000000011111111111110000000000000000
000000000000000001111111111100000000000000000
000000000000000011111111111110000000000000000
000000000011111111000000000111111110000000000
000000000001011111100000000111111100000000000
000000000000001111100000001111100000000000000
000000000000001111110000011101110000000000000
000000000000011101110000011001100000000000000
000000000000000000110000011000000000000000000
000000000000000000000000000000000000000000000
000000000000000000000000000000000000000000000
000000000000000000000000000000000000000000000
