P1
45 37
000000000000000000000000000000000000000000000
000000000000000000001111110000000000000000000
000000000000000000011111111000000000000000000
000000000000000000111100111100000000000000000
000000000000000000111000001111100000000000000
000000000000000001110000001111111000000000000
000000000000000011110000000111111100000000000
000000000000001111110000000000001110000000000
000000000000011111100000000000001110000000000
000000000000111000000000000000000110000000000
000000000111110000000000000000000111000000000
000000111111110000000000000000000111110000000
000001111111110000000000000000001111111000000
000001110000100000000000000000011110011100000
000011100000000000000000000011111100001110000
000011000000000000000000000011111000001110000
000011000000000000000000000000000000001110000
000011000000000000000000000000000000001110000
000011100000000000000000000000000000001110000
000011110000000000000000000000000000011100000
000001111111111111111111111111111111111100000
000000111111111111111111111111111111111000000
000000001111111111111111111111111111100000000
000000000000000111111111100000000000000000000
000000000000001111111111000000000000000000000
000000000000011111111110000011000011000000000
000000000000011111111100000110000110000000000
000000000000000011111000001110001110000000000
000000000000000011110000011100011100000000000
000000000000000011100000111000111000000000000
000000000000000111000000110001110000000000000
000000000000001110000000100001100000000000000
000000000000001100000000000000000000000000000
000000000000011000000000000000000000000000000
000000000000010000000000000000000000000000000
000000000000100000000000000000000000000000000
000000000000000000000000000000000000000000000
