P1
45 37
000000000000000000000000000000000000000000000
000000000000111111111111111111110000000000000
000000000001000000000000000000001000000000000
000000000010000000000000000000000100000000000
000000000100000000000000000000000010000000000
000000001000001111111111111111000001000000000
000000010000010000000000000000100000100000000
000000010000100000000000000000010000100000000
000000010001000000000000000000010000100000000
000000010001000000000000000000010000100000000
000000011111000000000000000000100001000000000
000000000000000000000000000001000010000000000
000000000000000000000000000010000100000000000
000000000000000000000000000100001000000000000
000000000000000000000000001000010000000000000
000000000000000000000000010000100000000000000
000000000000000000000000100001000000000000000
000000000000000000000001000010000000000000000
000000000000000000000010000100000000000000000
000000000000000000000100001000000000000000000
000000000000000000001000010000000000000000000
000000000000000000001000100000000000000000000
000000000000000000001000100000000000000000000
000000000000000000001000100000000000000000000
000000000000000000001000100000000000000000000
000000000000000000001000100000000000000000000
000000000000000000001000100000000000000000000
000000000000000000001000100000000000000000000
000000000000000000001111100000000000000000000
000000000000000000000000000000000000000000000
000000000000000000000000000000000000000000000
000000000000000000000111000000000000000000000
000000000000000000001000100000000000000000000
000000000000000000001000100000000000000000000
000000000000000000001000100000000000000000000
000000000000000000000111000000000000000000000
000000000000000000000000000000000000000000000
